<?xml version="1.0" encoding="UTF-8" standalone="no"?>
<!-- Created with Inkscape (http://www.inkscape.org/) -->

<svg
   width="210mm"
   height="297mm"
   viewBox="0 0 210 297"
   version="1.1"
   id="svg523"
   inkscape:version="1.1.2 (0a00cf5339, 2022-02-04)"
   sodipodi:docname="my-tree.svg"
   xmlns:inkscape="http://www.inkscape.org/namespaces/inkscape"
   xmlns:sodipodi="http://sodipodi.sourceforge.net/DTD/sodipodi-0.dtd"
   xmlns="http://www.w3.org/2000/svg"
   xmlns:svg="http://www.w3.org/2000/svg">
  <sodipodi:namedview
     id="namedview525"
     pagecolor="#ffffff"
     bordercolor="#666666"
     borderopacity="1.0"
     inkscape:pageshadow="2"
     inkscape:pageopacity="0.0"
     inkscape:pagecheckerboard="0"
     inkscape:document-units="mm"
     showgrid="false"
     inkscape:zoom="0.24911825"
     inkscape:cx="-1274.4951"
     inkscape:cy="293.03353"
     inkscape:window-width="1920"
     inkscape:window-height="1011"
     inkscape:window-x="0"
     inkscape:window-y="32"
     inkscape:window-maximized="1"
     inkscape:current-layer="layer1" />
  <defs
     id="defs520">
    <clipPath
       clipPathUnits="userSpaceOnUse"
       id="clipPath394">
      <rect
         style="fill:#0000ff;fill-rule:evenodd"
         id="rect396"
         width="118.94071"
         height="99.466614"
         x="162.76576"
         y="-4.1780381" />
    </clipPath>
    <clipPath
       clipPathUnits="userSpaceOnUse"
       id="clipPath762">
      <ellipse
         style="fill:#ff0000;fill-rule:evenodd"
         id="ellipse764"
         ry="48.644222"
         rx="66.361931"
         cy="766.12988"
         cx="231.81487" />
    </clipPath>
  </defs>
  <g
     inkscape:label="tree"
     inkscape:groupmode="layer"
     id="layer1"
     style="display:inline">
    <g
       id="body"
       clip-path="url(#clipPath394)"
       transform="matrix(0.26458333,0,0,0.26458333,7.5372438,31.499894)"
       style="display:inline">
      <path
         d="M 398.1,698.5 C 366.5,669.7 350.3,618.3 330.9,580.6 307.1,534.5 291.7,487.2 281.4,436.2 269.6,377.3 260.9,317.8 250,258.7 c -3.3,-18.1 -6,-36.6 -8.6,-55.2 4.8,176 10.5,365.3 101.7,516.1 3.3,5.5 -3.5,13 -9.1,9.1 -68,-47.7 -75.7,-160.4 -85.8,-235.1 -11,-81 -14.7,-162.6 -15.9,-244.2 -1.2,10.3 -2.1,20.6 -2.4,30.9 -1.5,47 0.1,93.9 -0.7,140.9 -1.6,98 -15.5,197.3 -27.5,294.5 -1.2,9.4 -13.9,9.6 -14.8,0 -9.6,-103.7 23.6,-208.5 26,-312.3 0.9,-39 1.3,-78.2 3.8,-117.2 -5.2,46.5 -12.2,92.9 -19.1,139.2 -13,87.5 -38.7,188.3 -83.8,265.2 -4.6,7.9 -15.9,2.5 -14.2,-6 10.3,-50.4 34.4,-98 49.1,-147.3 15.2,-50.7 24.9,-101.6 33.7,-153.7 6.9,-41 14,-82 20.3,-123.2 -16.1,66 -34.8,131.5 -55.4,196 C 119,545 86.3,656.7 17.2,722.8 8.9,730.7 -4.1,720.7 1.4,710.6 c 26,-47 57.3,-89.5 79,-139.2 22.1,-50.5 39.2,-102.9 55.5,-155.5 32,-103.5 58.7,-208.2 85.6,-313.1 1.2,-4.7 5.4,-5.8 8.8,-4.5 2.3,-0.3 4.6,0.6 6,3.1 20.7,38 22.6,91.8 31.7,133.8 11.5,52.8 20.2,105.9 30.6,158.9 11.7,60.1 25,119.3 55,173.3 21.4,38.7 42.6,78.4 60.5,118.9 4.3,10.3 -7.1,20.3 -16,12.2 z m -147.6,89 c -7.6,-20.5 -13.3,-41.9 -15.4,-63.7 -0.4,-4.2 -4.3,-6.6 -8.1,-4.7 -10.8,5.4 -21.2,6.6 -32.2,10 -1.8,-1.8 -5.5,-1 -5.7,2.3 -1.7,20.6 -6.9,40.7 -7.8,61.3 -0.2,3.5 2.9,5.7 6,6 19.4,2.2 40.1,1.8 59,-3.6 2.9,-0.8 5.4,-4.4 4.2,-7.6 z m 7.3,-710 -8.1,-20.6 c -0.9,-2.3 -0.2,-4.9 1.7,-6.4 l 17.1,-14.1 c 4.2,-3.5 1.5,-10.3 -3.9,-10 l -22.1,1.3 c -2.4,0.1 -4.7,-1.3 -5.6,-3.6 L 228.8,3.5 c -2,-5.1 -9.3,-4.6 -10.7,0.7 l -5.5,21.4 c -0.6,2.4 -2.7,4.1 -5.1,4.2 l -22.1,1.3 c -5.4,0.3 -7.3,7.4 -2.7,10.4 l 18.7,11.9 c 2.1,1.3 3,3.8 2.4,6.2 L 198.3,81 c -1.4,5.3 4.8,9.2 9,5.8 l 17.1,-14.1 c 1.9,-1.6 4.6,-1.7 6.6,-0.4 l 18.7,11.9 c 4.4,3 10.1,-1.7 8.1,-6.7 z"
         id="path3" />
    </g>
    <g
       id="body-7"
       clip-path="url(#clipPath762)"
       transform="matrix(0.26458333,0,0,0.26458333,7.0080771,21.974888)"
       style="display:inline">
      <path
         d="M 398.1,698.5 C 366.5,669.7 350.3,618.3 330.9,580.6 307.1,534.5 291.7,487.2 281.4,436.2 269.6,377.3 260.9,317.8 250,258.7 c -3.3,-18.1 -6,-36.6 -8.6,-55.2 4.8,176 10.5,365.3 101.7,516.1 3.3,5.5 -3.5,13 -9.1,9.1 -68,-47.7 -75.7,-160.4 -85.8,-235.1 -11,-81 -14.7,-162.6 -15.9,-244.2 -1.2,10.3 -2.1,20.6 -2.4,30.9 -1.5,47 0.1,93.9 -0.7,140.9 -1.6,98 -15.5,197.3 -27.5,294.5 -1.2,9.4 -13.9,9.6 -14.8,0 -9.6,-103.7 23.6,-208.5 26,-312.3 0.9,-39 1.3,-78.2 3.8,-117.2 -5.2,46.5 -12.2,92.9 -19.1,139.2 -13,87.5 -38.7,188.3 -83.8,265.2 -4.6,7.9 -15.9,2.5 -14.2,-6 10.3,-50.4 34.4,-98 49.1,-147.3 15.2,-50.7 24.9,-101.6 33.7,-153.7 6.9,-41 14,-82 20.3,-123.2 -16.1,66 -34.8,131.5 -55.4,196 C 119,545 86.3,656.7 17.2,722.8 8.9,730.7 -4.1,720.7 1.4,710.6 c 26,-47 57.3,-89.5 79,-139.2 22.1,-50.5 39.2,-102.9 55.5,-155.5 32,-103.5 58.7,-208.2 85.6,-313.1 1.2,-4.7 5.4,-5.8 8.8,-4.5 2.3,-0.3 4.6,0.6 6,3.1 20.7,38 22.6,91.8 31.7,133.8 11.5,52.8 20.2,105.9 30.6,158.9 11.7,60.1 25,119.3 55,173.3 21.4,38.7 42.6,78.4 60.5,118.9 4.3,10.3 -7.1,20.3 -16,12.2 z m -147.6,89 c -7.6,-20.5 -13.3,-41.9 -15.4,-63.7 -0.4,-4.2 -4.3,-6.6 -8.1,-4.7 -10.8,5.4 -21.2,6.6 -32.2,10 -1.8,-1.8 -5.5,-1 -5.7,2.3 -1.7,20.6 -6.9,40.7 -7.8,61.3 -0.2,3.5 2.9,5.7 6,6 19.4,2.2 40.1,1.8 59,-3.6 2.9,-0.8 5.4,-4.4 4.2,-7.6 z m 7.3,-710 -8.1,-20.6 c -0.9,-2.3 -0.2,-4.9 1.7,-6.4 l 17.1,-14.1 c 4.2,-3.5 1.5,-10.3 -3.9,-10 l -22.1,1.3 c -2.4,0.1 -4.7,-1.3 -5.6,-3.6 L 228.8,3.5 c -2,-5.1 -9.3,-4.6 -10.7,0.7 l -5.5,21.4 c -0.6,2.4 -2.7,4.1 -5.1,4.2 l -22.1,1.3 c -5.4,0.3 -7.3,7.4 -2.7,10.4 l 18.7,11.9 c 2.1,1.3 3,3.8 2.4,6.2 L 198.3,81 c -1.4,5.3 4.8,9.2 9,5.8 l 17.1,-14.1 c 1.9,-1.6 4.6,-1.7 6.6,-0.4 l 18.7,11.9 c 4.4,3 10.1,-1.7 8.1,-6.7 z"
         id="path3-5"
         style="display:inline" />
    </g>
    <path
       d="m 112.3387,208.90302 c -8.36083,-7.62 -12.64708,-21.21958 -17.78,-31.19438 -6.29708,-12.19729 -10.37166,-24.71208 -13.09687,-38.20583 -3.12208,-15.58396 -5.42396,-31.32667 -8.30792,-46.963544 -0.87312,-4.78896 -1.5875,-9.68375 -2.27541,-14.605 1.27,46.566664 2.77812,96.652294 26.90812,136.551464 0.87313,1.45521 -0.92604,3.43958 -2.40771,2.40771 -17.99166,-12.62063 -20.02896,-42.43917 -22.70125,-62.20355 -2.91041,-21.43125 -3.889372,-43.02125 -4.206872,-64.611254 -0.3175,2.72521 -0.55563,5.45042 -0.635,8.17563 -0.39688,12.435414 0.0265,24.844374 -0.18521,37.279794 -0.42333,25.92917 -4.10104,52.20229 -7.27604,77.91979 -0.3175,2.48709 -3.67771,2.54 -3.91584,0 -2.54,-27.43729 6.24417,-55.16562 6.87917,-82.62938 0.23813,-10.31875 0.34396,-20.69041 1.00542,-31.009164 -1.37584,12.303124 -3.22792,24.579794 -5.05354,36.830004 -3.43959,23.15104 -10.23938,49.82104 -22.17209,70.1675 -1.21708,2.09021 -4.20687,0.66146 -3.75708,-1.5875 2.72521,-13.335 9.10167,-25.92917 12.99104,-38.97312 4.02167,-13.41438 6.58813,-26.88167 8.91646,-40.66647 1.82562,-10.84791 3.70417,-21.69583 5.37104,-32.596664 -4.25979,17.462504 -9.2075,34.792714 -14.65792,51.858334 -7.4877,23.44209 -16.13958,52.99605 -34.42229,70.485 -2.1960401,2.09021 -5.6356201,-0.55562 -4.1804101,-3.22791 6.8791601,-12.43542 15.1606201,-23.68021 20.9020801,-36.83 5.84729,-13.36146 10.37167,-27.22563 14.68437,-41.14271 8.46667,-27.38438 15.53105,-55.086254 22.64834,-82.841048 0.3175,-1.243542 1.42875,-1.534583 2.32833,-1.190625 0.60854,-0.07937 1.21708,0.15875 1.5875,0.820208 5.476882,10.054167 5.979582,24.28875 8.387292,35.401251 3.04271,13.970004 5.34459,28.019374 8.09625,42.042294 3.09563,15.90146 6.61459,31.56479 14.55209,45.85229 5.66208,10.23938 11.27125,20.74334 16.00729,31.45896 1.13771,2.72521 -1.87854,5.37104 -4.23334,3.22792 z"
       id="path3-3"
       sodipodi:nodetypes="cccccccccccccccccccccccccccccccccc"
       style="display:inline;stroke-width:0.264583" />
  </g>
</svg>
